<?xml version="1.0" encoding="utf-8"?>
<!-- Generator: Adobe Illustrator 25.4.1, SVG Export Plug-In . SVG Version: 6.00 Build 0)  -->
<svg version="1.1" id="Layer_1" xmlns="http://www.w3.org/2000/svg" xmlns:xlink="http://www.w3.org/1999/xlink" x="0px" y="0px"
	 viewBox="0 0 50 45" style="enable-background:new 0 0 50 45;" xml:space="preserve">
<style type="text/css">
	.st0{fill:#1E78BD;}
</style>
<g>
	<path class="st0" d="M21.01,38.48c-1.63,0-2.95,1.32-2.95,2.95c0,1.63,1.32,2.95,2.95,2.95s2.95-1.32,2.95-2.95
		C23.96,39.8,22.64,38.48,21.01,38.48z"/>
	<path class="st0" d="M39.31,38.48c-1.63,0-2.95,1.32-2.95,2.95c0,1.63,1.32,2.95,2.95,2.95s2.95-1.32,2.95-2.95
		C42.26,39.8,40.94,38.48,39.31,38.48z"/>
	<path class="st0" d="M30.48,17.88c4.77,0,8.63-3.87,8.63-8.63c0-4.77-3.86-8.63-8.63-8.63c-4.77,0-8.63,3.86-8.63,8.63
		C21.85,14.02,25.72,17.88,30.48,17.88z M30.48,2.78c3.57,0,6.47,2.9,6.47,6.47c0,3.57-2.9,6.47-6.47,6.47
		c-3.57,0-6.47-2.9-6.47-6.47C24.01,5.68,26.91,2.78,30.48,2.78z"/>
	<path class="st0" d="M29.72,13.57c0.28,0,0.55-0.11,0.76-0.32l4.58-4.58c0.42-0.42,0.42-1.1,0-1.53c-0.42-0.42-1.1-0.42-1.53,0
		l-3.81,3.81l-2.29-2.29c-0.42-0.42-1.1-0.42-1.53,0c-0.42,0.42-0.42,1.1,0,1.53l3.05,3.05C29.17,13.46,29.44,13.57,29.72,13.57z"/>
	<path class="st0" d="M49.15,9.47c-0.26-0.33-0.77-0.73-1.73-0.73h-5.54c0.01,0.17,0.03,0.34,0.03,0.51c0,0.8-0.08,1.57-0.24,2.33
		h4.7l-1.54,6.26h-4.99l0.26-2.45c-2.03,3.17-5.57,5.28-9.62,5.28c-4.02,0-7.55-2.09-9.59-5.23l0.26,2.4h-6.09l-1.7-6.26h5.94
		c-0.16-0.75-0.24-1.53-0.24-2.33c0-0.17,0.02-0.34,0.03-0.51h-6.5L11.55,4.9l0,0c-0.25-0.92-1.09-1.56-2.04-1.56H1.92
		c-0.78,0-1.42,0.63-1.42,1.42c0,0.78,0.63,1.42,1.42,1.42h7.04l8.05,29.64l0,0c0.2,0.74,0.88,1.26,1.65,1.26h23.99
		c0.78,0,1.42-0.63,1.42-1.42c0-0.78-0.63-1.42-1.42-1.42H19.52l-1.21-4.47h25.1c0.83,0,1.55-0.56,1.75-1.37l4.3-17.49
		C49.57,10.4,49.46,9.87,49.15,9.47z M17.53,26.93l-1.7-6.26h5.63l0.68,6.26H17.53z M29.08,26.93h-4.09l-0.68-6.26h4.77V26.93z
		 M36,26.93h-4.09v-6.26h4.77L36,26.93z M42.59,26.93h-3.74l0.68-6.26h4.6L42.59,26.93z"/>
</g>
</svg>
