<?xml version="1.0" encoding="utf-8"?>
<!-- Generator: Adobe Illustrator 25.4.1, SVG Export Plug-In . SVG Version: 6.00 Build 0)  -->
<svg version="1.1" id="Layer_1" xmlns="http://www.w3.org/2000/svg" xmlns:xlink="http://www.w3.org/1999/xlink" x="0px" y="0px"
	 viewBox="0 0 32 25" style="enable-background:new 0 0 32 25;" xml:space="preserve">
<style type="text/css">
	.st0{fill:#1E78BD;}
</style>
<path class="st0" d="M24.65,17.62l-5.12-5.12l5.12-5.12c0.98-0.98,0.98-2.56,0-3.54c-0.98-0.98-2.56-0.98-3.54,0L16,8.96l-5.12-5.12
	c-0.98-0.98-2.56-0.98-3.54,0s-0.98,2.56,0,3.54l5.12,5.12l-5.12,5.12c-0.98,0.98-0.98,2.56,0,3.54s2.56,0.98,3.54,0L16,16.04
	l5.12,5.12c0.98,0.98,2.56,0.98,3.54,0C25.63,20.18,25.63,18.6,24.65,17.62z"/>
</svg>
