<?xml version="1.0" encoding="utf-8"?>
<!-- Generator: Adobe Illustrator 25.4.1, SVG Export Plug-In . SVG Version: 6.00 Build 0)  -->
<svg version="1.1" id="Layer_1" xmlns="http://www.w3.org/2000/svg" xmlns:xlink="http://www.w3.org/1999/xlink" x="0px" y="0px"
	 viewBox="0 0 32 25" style="enable-background:new 0 0 32 25;" xml:space="preserve">
<style type="text/css">
	.st0{fill-rule:evenodd;clip-rule:evenodd;fill:#1E78BD;}
</style>
<path class="st0" d="M24.45,7.62h1.01v2.96l6.21-5.33l-6.21-5.33v3.55h-1.01c-5.5,0-8.58,4.03-11.31,7.64
	c-2.42,3.2-4.56,5.98-7.93,5.98H2.22c-1.04,0-1.89,0.85-1.89,1.89v0.37c0,1.04,0.85,1.89,1.89,1.89h2.99
	c5.45,0,8.53-4.08,11.25-7.64C18.89,10.4,21.02,7.62,24.45,7.62L24.45,7.62z M10.12,10.22C8.7,8.8,7.17,7.91,5.21,7.91H2.22
	c-1.04,0-1.89-0.85-1.89-1.89V5.66c0-1.04,0.85-1.89,1.89-1.89h2.99c3.14,0,5.5,1.36,7.46,3.14c-0.65,0.83-1.3,1.6-1.84,2.37
	C10.6,9.63,10.36,9.93,10.12,10.22L10.12,10.22z M25.45,17.38v-2.96l6.21,5.33l-6.21,5.33v-3.55h-1.01c-3.31,0-5.74-1.48-7.75-3.43
	c0.77-0.95,1.48-1.83,2.13-2.72c0.12-0.18,0.3-0.35,0.41-0.59c1.54,1.54,3.14,2.6,5.21,2.6H25.45z"/>
</svg>
